<svg xmlns="http://www.w3.org/2000/svg" xmlns:xlink="http://www.w3.org/1999/xlink" width="512" height="512" viewBox="0 0 512 512">
  <defs>
    <clipPath id="clip-home-icon">
      <rect width="512" height="512"/>
    </clipPath>
  </defs>
  <g id="home-icon" clip-path="url(#clip-home-icon)">
    <path id="home-icon-2" data-name="home-icon" d="M203.574,743A43.7,43.7,0,0,1,160,699.425V416.191a43.268,43.268,0,0,1,4.63-19.609,41.786,41.786,0,0,1,12.8-15.251L366.252,239.715a46.318,46.318,0,0,1,12.6-6.536A43.225,43.225,0,0,1,392.54,231a42.328,42.328,0,0,1,13.593,2.179,45.38,45.38,0,0,1,12.409,6.536L607.365,381.332a41.786,41.786,0,0,1,12.8,15.251,43.268,43.268,0,0,1,4.63,19.609V699.425A43.7,43.7,0,0,1,581.22,743H450.5V539.652H334.3V743Z" transform="translate(-136.397 -231)"/>
  </g>
</svg>
